<?xml version="1.0" encoding="utf-8"?>
<!-- Generator: Adobe Illustrator 27.5.0, SVG Export Plug-In . SVG Version: 6.00 Build 0)  -->
<svg version="1.1" id="Capa_2" xmlns="http://www.w3.org/2000/svg" xmlns:xlink="http://www.w3.org/1999/xlink" x="0px" y="0px"
	 viewBox="0 0 2122 2122" style="enable-background:new 0 0 2122 2122;" xml:space="preserve">
<g>
	<path style="fill:#F9C7C3;" d="M1754.677,533.805c-3.428-0.088-6.843-0.085-10.241,0.003
		c-57.776,0.912-76.235-43.114-81.137-59.742c-19.172-82.938-90.579-144.876-179.472-147.177
		c-61.993-1.602-119.067,26.154-157.872,70.793l-0.009-0.001l-0.109,0.136c-1.957,2.254-3.865,4.549-5.727,6.888
		c-41.65,48.202-73.848,42.902-83.914,39.523c-1.084-0.455-2.167-0.899-3.258-1.336l-0.043-0.022l-0.005,0.004
		c-20.214-8.047-42.229-12.725-65.447-13.325c-57.947-1.498-111.587,22.657-150.038,62.271
		c-88.453,74.959-77.361,192.521-77.361,192.521c0.023-0.015,0.045-0.03,0.068-0.044c-1.232,15.371-1.418,31.108-0.337,47.125
		c8.185,121.296,82.709,218.655,176.233,241.447c-0.05,0.049-0.128,0.077-0.176,0.128c-1.453,1.556-1.451,3.255,0.991,3.699
		c1.78,0.324,3.577,0.519,5.364,0.797l27.266,49.455c-43.511-14.659-104.016-21.162-170.169-15.876
		c-42.87,3.425-97.67,9.723-151.367,18.528c-24.257,2.939-49.321,7.512-73.464,12.797l0.595-18.826
		c2.054-0.328,4.486-1.102,5.113-2.721c0.233-0.602,0.242-1.089,0.139-1.511c13.147,0.11,26.356-1.467,39.419-5.016
		c93.657-25.436,144.305-139.123,113.125-253.928c-1.497-5.514-3.204-10.897-5.016-16.209c0.018,0.005,0.035,0.013,0.052,0.018
		c0,0-6.307-147.362-175.722-165.832c-83.901-9.147-132.329,31.537-159.855,74.938c-25.31-7.533-53.575-2.993-77.115,12.635
		l-0.073-0.039c0,0-0.33,0.249-0.823,0.6c-0.457,0.312-0.92,0.606-1.375,0.927c-6.765,4.372-28.33,15.599-48.388-3.519l-0.064,0.107
		c-1.096-1.052-2.117-2.155-3.275-3.155c-38.252-33.024-97.108-25.406-131.457,17.025c-13.35,16.489-20.96,35.808-23.123,55.207
		l-0.062-0.046c-3.147,23.492-18.543,29.599-23.924,31.032l-0.914,0.227c-0.616,0.137-0.966,0.182-0.966,0.182l0.04,0.06
		c-22.94,5.272-44.595,19.313-59.75,41.172c-31.083,44.827-23.118,105.268,17.781,135.001c6.807,4.946,14.124,8.625,21.689,11.29
		l-0.051,0.094c0,0,27.601,7.613,34.296,52.931c0.077,0.534,0.259,1.006,0.375,1.519c4.474,21.686,16.154,41.393,34.619,54.818
		c29.32,21.308,67.558,20.955,98.336,2.597l-0.023,0.14c0,0,30.319-21.093,57.014,1.156l0.069-0.076
		c0.743,0.578,1.418,1.22,2.184,1.777c20.373,14.808,45.073,19.192,68.579,14.335l-3.463,30.46c0,0,0.346,0.523,1.032,1.453
		c-90.9,40.59-230.558,121.066-214.13,227.195c24.137,155.933,108.594,417.252,198.143,417.543
		c44.446,0.145,183.239-6.891,311.472-27.82c3.54,2.78,7.318,4.552,11.308,5.234l-0.033,0.31c0,0,0.29,0.042,0.715,0.103
		c-0.437,2.069,0.419,4.268,2.923,4.855c4.953,1.161,9.941,2.197,14.922,3.253c67.969,57.223,311.285,56.089,503.487,43.734
		c3.273-0.101,6.415-0.233,9.365-0.408c1.404-0.075,2.802-0.178,4.2-0.286c0.25-0.019,0.525-0.032,0.773-0.052v-0.015
		c2.189-0.18,4.374-0.375,6.548-0.635c95.92-6.685,176.393-15.827,211.336-21.182c116.141-17.799,174.747-329.167,175.645-509.842
		c0.519-104.722-159.125-158.269-293.463-184.802c0.002-0.005,0.004-0.01,0.007-0.015c-0.532-0.105-1.052-0.198-1.583-0.302
		c-4.481-0.88-8.936-1.732-13.352-2.551c-1.278-0.237-2.56-0.479-3.832-0.711c-1.946-0.356-3.879-0.702-5.81-1.046
		c-1.276-0.227-2.549-0.455-3.817-0.678c-1.4-0.246-2.799-0.492-4.19-0.732l-11.056-50.415
		c42.225-2.424,81.531-18.348,113.488-43.693c1.336-0.967,2.642-2.014,3.906-3.155l0.318-0.283c2.142-1.79,4.246-3.623,6.317-5.498
		c59.494-50.009,107.627-40.726,118.891-37.564c0.82,0.266,1.642,0.521,2.467,0.778l0.033,0.013l0-0.004
		c16.308,5.055,33.619,7.988,51.656,8.455c108.501,2.802,201.951-84.286,208.731-194.517
		C1945.638,628.248,1863.176,536.61,1754.677,533.805z"/>
	<g>
		<path style="fill:#B19C33;" d="M1475.105,1070.083c-4.481-0.879-8.936-1.731-13.352-2.551
			C1466.169,1068.352,1470.625,1069.206,1475.105,1070.083z"/>
		<path style="fill:#B19C33;" d="M1475.105,1070.083c0.522,0.103,1.053,0.215,1.576,0.317c0.002-0.005,0.005-0.009,0.007-0.014
			C1476.156,1070.281,1475.636,1070.188,1475.105,1070.083z"/>
		<path style="fill:#B19C33;" d="M1476.681,1070.401c-9.315,20.686-21.26,41.203-35.945,60.852
			c-6.247,8.358-12.805,16.255-19.575,23.76c1.206,0.561,2.245,1.29,3.063,2.234c5.025,5.798,1.665,18.075-8.058,34.062
			c-3.069,4.512-6.317,9.301-9.747,14.385c-5.652,7.668-12.355,15.864-20,24.403c1.632,0.496,2.161,1.701,1.565,2.966
			c0.049-0.018,0.097-0.036,0.146-0.055c-19.202,28.896-41.433,63.058-63.748,98.873c-5.03-13.861-11.223-28.294-18.563-42.875
			c-33.343-66.241-78.214-112.071-104.514-108.462c-2.09,0.287-4.077,0.847-5.917,1.774v0
			c-13.192,6.171-25.872,12.127-38.281,17.968c-29.635-37.427-36.178-94.012-20.212-153.284c3.934-0.146,7.728-0.25,11.592-0.374
			c3.871-0.124,7.82-0.269,11.611-0.372l-0.001-0.002l-10.644-19.305c-43.511-14.659-104.016-21.162-170.169-15.876
			c-42.87,3.425-97.671,9.723-151.367,18.528c-24.257,2.939-49.321,7.512-73.464,12.797l-1.315,41.58
			c28.358,27.714,119.89,128.111-69.352,104.332c-100.175-12.588-143.367-65.659-150.317-75.089
			c-90.9,40.59-230.558,121.065-214.13,227.195c24.137,155.933,108.594,417.252,198.143,417.543
			c44.446,0.144,183.239-6.891,311.472-27.82c3.54,2.78,7.318,4.552,11.308,5.234l-0.033,0.31c0,0,0.29,0.042,0.715,0.103
			c-0.437,2.069,0.419,4.268,2.924,4.855c4.953,1.161,9.94,2.197,14.921,3.253c67.969,57.223,311.285,56.089,503.487,43.734
			c3.273-0.101,6.415-0.233,9.365-0.409c1.404-0.075,2.802-0.177,4.2-0.286c0.25-0.019,0.525-0.033,0.773-0.052v-0.016
			c2.189-0.18,4.375-0.374,6.548-0.635c95.92-6.684,176.393-15.826,211.336-21.182c116.141-17.799,174.747-329.167,175.645-509.842
			C1770.664,1150.482,1611.019,1096.934,1476.681,1070.401z M729.303,1639.006c-78.163,0.246-141.573-14.691-141.632-33.364
			c-0.028-9.05,14.866-17.307,39.088-23.451c-1.75-0.528-2.038-1.992-1.118-3.344c-48.216-11.28-80.266-27.007-78.796-41.143
			c0.418-4.012,3.555-7.584,8.889-10.683c1.351,0.46,2.702,0.921,4.053,1.381c4.06,1.383,11.169-3.771,7.721-6.389
			c7.611-2.427,17.11-4.365,28.101-5.776c0.362-0.801,1.467-1.656,2.072-1.994c0.948-0.529,2.072-0.933,3.23-1.195
			c-33.826-11.946-54.597-25.568-52.869-37.1c1.896-12.647,30.383-19.769,72.133-20.255c0.077-0.96,0.804-1.953,1.867-2.781
			c-23.546-12.361-36.995-25.042-34.667-35.08c4.629-19.958,69.735-21.906,145.42-4.352c36.439,8.451,68.659,19.884,91.787,31.694
			c-11.932,29.281-21.263,67.553-25.672,109.918c-2.955,28.392-3.352,55.422-1.604,79.544
			C777.128,1637.347,753.957,1638.928,729.303,1639.006z"/>
		<path style="fill:#B19C33;" d="M1448.295,1065.097c-1.401-0.246-2.8-0.492-4.191-0.732l0.001,0.006
			C1445.498,1064.611,1446.891,1064.851,1448.295,1065.097z"/>
	</g>
	<g>
		<path style="fill:#B19C33;" d="M1452.111,1065.775c1.931,0.344,3.864,0.69,5.81,1.046
			C1455.973,1066.465,1454.043,1066.12,1452.111,1065.775z"/>
		<path style="fill:#EF7C59;" d="M1424.224,1157.246c-0.818-0.944-1.856-1.673-3.063-2.234c-8.026-3.73-24.362,0.861-45.226,11.79
			c-0.701-0.306-1.664-0.416-2.302-0.405c-0.951,0.015-2.108,0.208-3.243,0.525c19.153-26.849,27.578-48.056,20.181-55.851
			c-8.122-8.559-33.38,1.072-65.168,22.724c-0.756-0.765-1.945-1.274-2.906-1.376c-0.005-0.001-0.01,0.001-0.015,0
			c11.115-21.641,14.501-38.21,7.46-44.543c-14.092-12.673-64.475,20.372-112.535,73.809c-5.673,6.308-11.034,12.614-16.101,18.859
			c-2.09,0.287-4.077,0.847-5.917,1.774v0c-13.192,6.171-25.872,12.127-38.281,17.968c-46.242,21.767-87.1,41.254-122.92,58.53
			c-0.58-1.339-2.127-2.201-4.449-1.859c-17.814-80.659-40.751-153.547-68.991-194.304c63.117-10.316,137.061-14.699,199.35-16.399
			l-10.644-19.305c-43.511-14.659-104.016-21.162-170.169-15.876c-42.87,3.425-97.671,9.723-151.367,18.528
			c-24.257,2.939-49.321,7.512-73.464,12.797l0.595-18.826c2.054-0.328,4.486-1.102,5.113-2.721
			c0.233-0.602,0.242-1.089,0.139-1.511c13.148,0.11,26.356-1.467,39.42-5.016c93.657-25.436,144.304-139.124,113.124-253.928
			c-1.497-5.514-3.204-10.897-5.016-16.209c0.018,0.005,0.035,0.013,0.052,0.018c0,0-6.307-147.362-175.721-165.832
			c-83.901-9.147-132.329,31.537-159.855,74.938c-25.31-7.533-53.575-2.993-77.115,12.635l-0.073-0.039c0,0-0.33,0.248-0.823,0.6
			c-0.457,0.312-0.92,0.606-1.375,0.926c-6.765,4.372-28.329,15.599-48.387-3.519l-0.065,0.107
			c-1.096-1.051-2.117-2.155-3.275-3.155c-38.252-33.024-97.108-25.406-131.457,17.025c-13.35,16.489-20.96,35.808-23.123,55.207
			l-0.062-0.046c-3.146,23.492-18.542,29.599-23.923,31.032l-0.914,0.227c-0.616,0.137-0.966,0.182-0.966,0.182l0.04,0.06
			c-22.94,5.272-44.595,19.313-59.75,41.172c-31.082,44.827-23.118,105.268,17.781,135.001c6.807,4.946,14.124,8.625,21.689,11.29
			l-0.051,0.094c0,0,27.6,7.613,34.295,52.931c0.077,0.534,0.259,1.006,0.374,1.519c4.475,21.686,16.154,41.392,34.62,54.818
			c29.32,21.308,67.558,20.955,98.335,2.597l-0.023,0.14c0,0,30.318-21.093,57.014,1.156l0.069-0.076
			c0.744,0.578,1.418,1.22,2.184,1.777c20.373,14.808,45.073,19.191,68.579,14.334l-3.463,30.46c0,0,0.346,0.523,1.032,1.453
			c-90.9,40.59-230.558,121.065-214.13,227.195c24.137,155.933,108.594,417.252,198.143,417.543
			c44.446,0.144,183.239-6.891,311.472-27.82c-16.818-13.209-28.272-48.866-31.65-95.499c-20.178,2.711-43.348,4.292-68.002,4.37
			c-78.163,0.246-141.573-14.691-141.632-33.364c-0.028-9.05,14.866-17.307,39.088-23.451c-1.75-0.528-2.038-1.992-1.118-3.344
			c-48.216-11.28-80.266-27.007-78.796-41.143c0.418-4.012,3.555-7.584,8.889-10.683c1.351,0.46,2.702,0.921,4.053,1.381
			c4.06,1.383,11.169-3.771,7.721-6.389c7.611-2.427,17.11-4.365,28.101-5.776c0.362-0.801,1.467-1.656,2.072-1.994
			c0.948-0.529,2.072-0.933,3.23-1.195c-33.826-11.946-54.597-25.568-52.869-37.1c1.896-12.647,30.383-19.769,72.133-20.255
			c0.077-0.96,0.804-1.953,1.867-2.781c-23.546-12.361-36.995-25.042-34.667-35.08c4.629-19.958,69.735-21.906,145.42-4.352
			c36.439,8.451,68.659,19.884,91.787,31.694c15.163-37.21,34.529-59.894,53.348-57.936v0
			c177.688,13.333,302.288,24.846,382.686,33.054c0.772-1.735,2.518-3.319,3.828-3.968c2.969-1.47,6.423-1.335,8.996,0.629
			c16.09-28.207,33.533-57.132,50.942-85.073c22.314-35.815,44.546-69.977,63.748-98.873c-0.049,0.018-0.097,0.036-0.146,0.055
			c0.596-1.265,0.067-2.47-1.565-2.966c7.646-8.539,14.349-16.735,20-24.403c3.431-5.084,6.678-9.874,9.747-14.385
			C1425.889,1175.321,1429.249,1163.044,1424.224,1157.246z"/>
	</g>
	<path style="fill:#9493C8;" d="M1305.819,1289.005c-33.343-66.241-78.214-112.071-104.514-108.462
		c-2.09,0.287-4.077,0.847-5.917,1.774v0c-13.192,6.171-25.872,12.127-38.281,17.968c-46.242,21.767-87.1,41.254-122.92,58.53
		c-0.58-1.339-2.127-2.201-4.449-1.859c-17.814-80.659-40.751-153.547-68.991-194.304c63.117-10.316,137.061-14.699,199.35-16.399
		l-10.644-19.305c-43.511-14.659-104.016-21.162-170.169-15.876c-42.87,3.425-97.671,9.723-151.367,18.528
		c-24.257,2.939-49.321,7.512-73.464,12.797l-1.315,41.58c28.358,27.714,119.89,128.111-69.352,104.332
		c-100.175-12.588-143.367-65.659-150.317-75.089c-90.9,40.59-230.558,121.065-214.13,227.195
		c24.137,155.933,108.594,417.252,198.143,417.543c44.446,0.144,183.239-6.891,311.472-27.82
		c-16.818-13.209-28.272-48.866-31.65-95.499c-20.178,2.711-43.348,4.292-68.002,4.37c-78.163,0.246-141.573-14.691-141.632-33.364
		c-0.028-9.05,14.866-17.307,39.088-23.451c-1.75-0.528-2.038-1.992-1.118-3.344c-48.216-11.28-80.266-27.007-78.796-41.143
		c0.418-4.012,3.555-7.584,8.889-10.683c1.351,0.46,2.702,0.921,4.053,1.381c4.06,1.383,11.169-3.771,7.721-6.389
		c7.611-2.427,17.11-4.365,28.101-5.776c0.362-0.801,1.467-1.656,2.072-1.994c0.948-0.529,2.072-0.933,3.23-1.195
		c-33.826-11.946-54.597-25.568-52.869-37.1c1.896-12.647,30.383-19.769,72.133-20.255c0.077-0.96,0.804-1.953,1.867-2.781
		c-23.546-12.361-36.995-25.042-34.667-35.08c4.629-19.958,69.735-21.906,145.42-4.352c36.439,8.451,68.659,19.884,91.787,31.694
		c15.163-37.21,34.529-59.894,53.348-57.936v0c177.688,13.333,302.288,24.846,382.686,33.054c0.772-1.735,2.518-3.319,3.828-3.968
		c2.969-1.47,6.423-1.335,8.996,0.629c16.09-28.207,33.533-57.132,50.942-85.073
		C1319.351,1318.02,1313.159,1303.587,1305.819,1289.005z"/>
	<g>
		<path style="fill:#561419;" d="M511.544,817.886c-11.448-36.924,1.293-73.684,28.457-82.105
			c23.222-7.2,49.425,8.682,63.705,36.499c21.32,0.761,124.6-2.492,203.607-128.802c0,0,50.792,84.982,100.516,100.708
			c0.018,0.005,0.035,0.013,0.052,0.018c0,0-6.307-147.362-175.722-165.832c-83.901-9.147-132.329,31.537-159.855,74.938
			c-25.31-7.533-53.575-2.993-77.115,12.635l-0.073-0.039c0,0-0.33,0.249-0.823,0.6c-0.457,0.312-0.92,0.606-1.375,0.927
			c-6.765,4.372-28.33,15.599-48.388-3.519l-0.064,0.107c-1.096-1.052-2.117-2.155-3.275-3.155
			c-38.252-33.024-97.108-25.406-131.457,17.025c-13.35,16.489-20.96,35.808-23.123,55.207l-0.062-0.046
			c-3.146,23.492-18.542,29.599-23.923,31.032l-0.914,0.227c-0.616,0.137-0.966,0.182-0.966,0.182l0.04,0.06
			c-22.94,5.272-44.595,19.313-59.75,41.172c-31.082,44.827-23.118,105.268,17.781,135.001c6.807,4.946,14.124,8.625,21.689,11.29
			l-0.051,0.094c0,0,27.6,7.613,34.295,52.931c0.077,0.534,0.259,1.006,0.374,1.519c4.475,21.686,16.154,41.393,34.619,54.818
			c29.32,21.308,67.558,20.955,98.336,2.597l-0.023,0.14c0,0,30.319-21.093,57.014,1.156l0.069-0.076
			c0.743,0.578,1.418,1.22,2.184,1.777c20.373,14.808,45.073,19.192,68.579,14.335l24.028-211.346
			C539.409,864.975,520.026,845.242,511.544,817.886z"/>
		<path style="fill:#ED6C35;" d="M1754.677,533.805c-3.428-0.088-6.843-0.085-10.241,0.003
			c-57.776,0.912-76.235-43.114-81.137-59.742c-19.172-82.938-90.579-144.876-179.472-147.177
			c-61.993-1.602-119.067,26.154-157.872,70.793l-0.009-0.001l-0.109,0.136c-1.957,2.254-3.865,4.549-5.727,6.888
			c-41.65,48.202-73.848,42.902-83.914,39.523c-1.084-0.455-2.167-0.899-3.258-1.336l-0.043-0.022l-0.005,0.004
			c-20.214-8.047-42.229-12.725-65.447-13.325c-57.947-1.498-111.587,22.657-150.038,62.271
			c-88.453,74.959-77.361,192.521-77.361,192.521c0.023-0.015,0.045-0.03,0.068-0.044c55.347-34.955,105.316-84.462,131.364-144.514
			c62.057,40.345,137.773,59.16,211.5,52.901c0.211-3.547,0.538-7.122,1.051-10.732c7.49-52.702,44.991-90.958,83.764-85.447
			c38.772,5.509,64.131,52.7,56.641,105.401c-6.025,42.39-31.475,75.385-61.377,83.826c0.649,5.374,1.205,10.786,1.587,16.263
			l68.406,311.958c42.225-2.424,81.531-18.348,113.488-43.693c1.336-0.967,2.642-2.014,3.906-3.155l0.318-0.283
			c2.142-1.79,4.246-3.623,6.317-5.498c59.494-50.009,107.627-40.726,118.891-37.564c0.82,0.266,1.643,0.521,2.467,0.778
			l0.033,0.013l0-0.004c16.308,5.055,33.619,7.988,51.656,8.455c108.501,2.802,201.951-84.286,208.731-194.517
			C1945.638,628.248,1863.176,536.61,1754.677,533.805z"/>
		<path style="fill:#561419;" d="M1121.595,718.809c2.177,4.899,4.801,9.724,8.919,13.273c8.586,7.401,20.805,4.761,27.612-3.653
			c7.681-9.493,10.273-23.589,12.687-35.223c3.417-16.471,4.561-33.312,3.586-50.099c-0.338-5.839-11.3-4.299-11.007,0.739
			c0.927,15.96-0.053,31.969-3.097,47.671c-1.5,7.734-3.432,15.419-6,22.87c-1.497,4.345-3.877,11.428-8.483,13.458
			c-5.084,2.24-9.653-4.97-11.662-8.536c-3.477-6.174-5.763-13.202-8.096-19.873c-5.263-15.047-9.13-30.532-11.695-46.262
			c-0.849-5.206-11.717-2.455-10.843,2.906c2.344,14.372,5.768,28.542,10.366,42.363
			C1116.169,705.317,1118.651,712.186,1121.595,718.809z"/>
		<path style="fill:#561419;" d="M992.924,772.593c2.178,4.899,4.802,9.724,8.92,13.273c8.586,7.4,20.804,4.762,27.613-3.652
			c7.68-9.494,10.272-23.589,12.686-35.224c3.417-16.471,4.561-33.312,3.587-50.099c-0.339-5.839-11.301-4.3-11.009,0.74
			c0.927,15.96-0.053,31.969-3.097,47.67c-1.499,7.734-3.432,15.419-6,22.87c-1.498,4.344-3.879,11.427-8.484,13.457
			c-5.083,2.241-9.652-4.969-11.661-8.536c-3.477-6.173-5.763-13.202-8.096-19.872c-5.262-15.047-9.129-30.533-11.694-46.262
			c-0.85-5.207-11.717-2.455-10.843,2.906c2.344,14.372,5.769,28.543,10.366,42.363C987.498,759.101,989.98,765.97,992.924,772.593z
			"/>
		<path style="fill:#561419;" d="M1069.413,814.317c-3.569-2.545-7.648-4.931-10.643-8.182c-3.721-4.039-3.888-8.77-2.696-13.922
			c2.325-10.051,5.945-19.955,8.918-29.834c3.041-10.104,6.082-20.207,9.123-30.311c0.61-2.026-9.867-0.784-10.686,1.94
			c-3.231,10.735-6.462,21.471-9.694,32.206c-3.064,10.18-7.505,20.77-9.018,31.312c-1.326,9.242,5.248,13.876,11.981,18.679
			c9.68,6.904,19.359,13.809,29.039,20.713c2.419,1.726,11.676-2.627,10.224-3.663
			C1087.113,826.942,1078.263,820.629,1069.413,814.317z"/>
		<path style="fill:#561419;" d="M1211.74,838.571c15.33-18.175,20.745-43.445,14.471-66.335
			c-1.298-4.733-12.143-1.836-10.843,2.906c5.414,19.755,1.75,42.056-10.898,58.403c-12.133,15.679-31.498,25.106-51.377,24.4
			c-2.508-0.089-5.906,0.717-7.081,3.243c-1.071,2.301,0.945,4.186,3.228,4.268C1172.739,866.289,1196.451,856.698,1211.74,838.571z
			"/>
		<path style="fill:#561419;" d="M1320.318,663.112c1.515,4.159,12.286,1.058,10.843-2.905c-8.324-22.857-9.591-47.227-4.331-70.124
			c20.389,7.712,36.822,24.796,43.573,45.639c0.836,2.581,11.612-0.532,10.843-2.905c-7.801-24.088-28.263-42.992-52.724-49.277
			c5.057-17.513,13.995-33.973,26.755-47.944c4.401-4.818-6.093-5.238-8.821-2.251
			C1314.378,568.466,1303.984,618.259,1320.318,663.112z"/>
		<path style="fill:#561419;" d="M1225.403,966.641c19.75-7.927,38.682-20.234,54.904-33.853
			c18.611-15.625,34.31-34.498,46.734-55.353c2.525-4.238-8.292-3.116-10.07-0.132c-10.331,17.341-22.845,33.306-37.648,47.06
			c-7.707,7.16-15.958,13.759-24.731,19.567c-2.637,1.746-5.346,3.381-7.979,5.128c-1.028,0.682,0.92-0.611-0.42,0.295
			c-16.931,11.447-37.019,18.628-57.048,22.177c-21.781,3.859-43.917,3.364-65.646-0.59c-2.304-0.419-5.727,0.208-7.491,1.927
			c-0.05,0.049-0.128,0.077-0.176,0.128c-1.453,1.556-1.451,3.255,0.991,3.699c1.78,0.324,3.577,0.519,5.364,0.797
			C1156.903,982.901,1192.666,979.78,1225.403,966.641z"/>
		<path style="fill:#F4A19D;" d="M1246.613,721.6c18.915-15.094,27.747-35.477,19.727-45.529
			c-8.021-10.051-29.856-5.964-48.772,9.13c-18.915,15.094-27.747,35.478-19.727,45.529
			C1205.862,740.781,1227.698,736.694,1246.613,721.6z"/>
		<path style="fill:#F4A19D;" d="M999.906,826.285c-13.677,10.913-20.062,25.651-14.263,32.919
			c5.799,7.267,21.586,4.311,35.263-6.602c13.676-10.913,20.062-25.651,14.264-32.918
			C1029.37,812.416,1013.583,815.372,999.906,826.285z"/>
		<path style="fill:#561419;" d="M827.256,805.645c2.699,5.652,5.81,11.828,10.177,16.393c2.383,2.49,5.195,4.415,8.697,4.84
			c3.808,0.462,7.689-0.934,10.403-3.6c4.472-4.39,4.572-11.492,4.884-17.332c0.443-8.328,0.043-16.688-1.044-24.953
			c-0.356-2.708-4.504-2.95-6.461-2.426c-2.487,0.667-4.743,2.589-4.382,5.331c1.011,7.688,1.294,15.436,0.858,23.179
			c-0.17,3.019-0.238,6.552-1.008,9.349c-0.139,0.504-0.331,1.003-0.542,1.481c-0.056,0.127-0.088,0.2-0.127,0.287l-0.542-0.333
			c-0.552-0.421-1.016-0.873-1.478-1.385c-1.027-1.138-1.888-2.435-2.74-3.703c-1.97-2.93-3.766-5.977-5.377-9.118
			c-3.163-6.167-5.459-12.781-7.065-19.515c-1.24-5.205-12.096-2.353-10.842,2.905C822.198,793.474,824.41,799.682,827.256,805.645z
			"/>
		<path style="fill:#561419;" d="M713.242,810.245c5.012,5.867,13.098,9.042,20.036,4.177c5.448-3.82,6.054-11.013,6.656-17.073
			c0.877-8.825,0.673-17.7-0.308-26.507c-0.302-2.713-4.542-2.94-6.461-2.425c-2.532,0.678-4.689,2.579-4.382,5.331
			c0.916,8.214,0.95,16.517,0.103,24.739c-0.309,3.012-0.458,6.371-1.66,9.094c-0.175,0.396-0.305,0.58-0.418,0.734
			c-0.291-0.133-0.594-0.243-0.867-0.417c-2.817-1.793-4.657-4.873-6.408-7.624c-2.024-3.179-3.89-6.463-5.55-9.845
			c-3.285-6.693-5.716-13.817-7.344-21.088c-1.166-5.21-12.025-2.377-10.843,2.905c1.52,6.792,3.763,13.396,6.687,19.712
			C705.397,798.252,708.709,804.939,713.242,810.245z M727.276,808.526c0.03,0.016,0.007,0.032,0.069,0.047
			c-0.03-0.008-0.051-0.031-0.081-0.039C727.271,808.53,727.27,808.529,727.276,808.526z M726.416,808.907l0.017-0.006
			C726.205,809.16,726.159,809.208,726.416,808.907z"/>
		<path style="fill:#561419;" d="M757.258,1017.789c-49.12,1.341-95.052-23.39-126.257-60.605c-2.323-2.77-12.727,1.04-10.083,4.193
			c32.593,38.868,80.94,63.791,132.079,62.396c0.549-0.015,1.276-0.081,2.052-0.205c2.054-0.328,4.486-1.102,5.113-2.721
			c0.233-0.602,0.242-1.089,0.139-1.511C760.038,1018.265,758.844,1017.746,757.258,1017.789z"/>
		<path style="fill:#F5ACAF;" d="M628.964,843.606c-0.048,10.611,16.1,19.287,36.069,19.378
			c19.969,0.091,36.195-8.437,36.244-19.048c0.048-10.611-16.101-19.287-36.069-19.378
			C645.239,824.466,629.013,832.995,628.964,843.606z"/>
		<path style="fill:#F5ACAF;" d="M841.966,849.414c-0.984,7.609,9.827,15.277,24.147,17.127c14.319,1.85,26.724-2.818,27.707-10.427
			c0.983-7.608-9.827-15.277-24.146-17.127C855.354,837.137,842.949,841.806,841.966,849.414z"/>
		<path style="fill:#561419;" d="M1335.141,1202.706c-10.914,10.697-22.13,21.224-34.22,30.594c-1.72,1.333-1.263,2.667,0.806,3.009
			c2.389,0.395,5.758-0.574,7.667-2.054c12.336-9.562,23.807-20.304,34.961-31.202c11.163-10.906,22.169-22.131,32.003-34.266
			c0.831-1.026,0.378-1.635-0.423-1.985c-0.701-0.306-1.664-0.416-2.302-0.405c-0.951,0.015-2.108,0.209-3.243,0.526
			c-1.565,0.436-3.088,1.138-3.97,2.225C1356.797,1181.022,1346.047,1192.017,1335.141,1202.706z"/>
		<path style="fill:#561419;" d="M1378.555,1232.058c-15.086,15.371-32.061,28.664-50.616,39.598
			c-1.665,0.981-3.027,3.209-0.89,4.461c2.22,1.3,5.688,0.228,7.695-0.954c19.221-11.326,36.942-25.164,52.569-41.087
			c0.324-0.33,0.51-0.673,0.67-1.013c0.596-1.265,0.067-2.47-1.565-2.965c-0.078-0.024-0.114-0.073-0.197-0.094
			C1383.819,1229.416,1380.321,1230.257,1378.555,1232.058z"/>
		<path style="fill:#561419;" d="M1315.414,1135.662c-10.935,16.308-24.4,30.966-39.701,43.265
			c-1.684,1.354-2.921,3.805-0.661,5.311c2.134,1.422,5.834,0.812,7.754-0.732c16.63-13.368,31.037-29.099,42.918-46.819
			c0.752-1.122,0.427-2.133-0.322-2.893c-0.757-0.765-1.945-1.274-2.906-1.376c-0.005,0-0.01,0.001-0.015,0
			C1319.713,1132.13,1316.948,1133.374,1315.414,1135.662z"/>
		<path style="fill:#561419;" d="M596.516,1517.676c16.132,4.614,32.724,7.755,49.261,10.513c16.711,2.787,33.595,5.216,50.53,6.059
			c2.417,0.12,5.815-0.303,7.667-2.054c1.354-1.28,1.671-2.886-0.806-3.009c-16.435-0.818-32.819-3.144-49.043-5.813
			c-16.397-2.698-32.831-5.78-48.822-10.353c-1.363-0.39-2.909-0.307-4.392,0.029c-1.157,0.262-2.281,0.666-3.23,1.195
			c-0.606,0.338-1.711,1.193-2.072,1.994C595.345,1516.821,595.464,1517.376,596.516,1517.676z"/>
		<path style="fill:#561419;" d="M700.404,1586.21c2.004-0.155,5.755-1.442,6.13-3.798c0.4-2.515-3.139-2.651-4.736-2.528
			c-22.76,1.762-45.668,0.502-68.109-3.666c-2.527-0.469-5.801,0.165-7.667,2.055c-0.18,0.182-0.252,0.383-0.382,0.575
			c-0.92,1.351-0.632,2.816,1.118,3.344c0.135,0.04,0.202,0.125,0.355,0.153C651.299,1586.837,675.882,1588.107,700.404,1586.21z"/>
		<path style="fill:#561419;" d="M622.435,1458.312c21.035,8.132,43.248,13.034,65.747,14.554c2.489,0.168,5.93-0.767,7.081-3.243
			c1.095-2.353-0.967-4.116-3.228-4.269c-21.716-1.467-42.958-6.199-63.259-14.047c-2.012-0.778-4.865,0.151-6.734,1.606
			c-1.063,0.828-1.79,1.821-1.867,2.781C620.095,1456.69,620.705,1457.643,622.435,1458.312z"/>
		<path style="fill:#561419;" d="M1734.611,1333.838c-31.272,69.654-66.71,137.407-106.235,202.737
			c-19.456,32.159-39.873,63.736-61.224,94.67c-20.964,30.372-42.245,61.076-67.953,87.686
			c-26.953,27.898-60.687,51.698-99.659,58.138c-2.084,0.345-8.168,1.73-8.294,4.615c-0.13,2.983,4.007,2.926,6.103,2.58
			c75.97-12.554,126.477-73.063,168.631-132.402c45.527-64.088,86.969-131.047,124.145-200.313
			c21.041-39.204,40.659-79.158,58.882-119.748C1750.714,1328.002,1736.578,1329.458,1734.611,1333.838z"/>
		<path style="fill:#561419;" d="M1225.106,1785.981c23.875,1.773,47.809,3.632,71.75,4.188c3.381,0.078,7.951-0.88,9.41-4.441
			c1.261-3.077-1.151-6.061-4.424-6.137c-51.441-1.195-102.97-6.394-154.184-11.02c-69.983-6.321-139.958-13.483-209.57-23.117
			c-28.669-3.968-57.855-8.045-85.89-14.617c-3.538-0.83-7.779-0.278-10.223,2.739c-0.528,0.653-0.865,1.42-1.031,2.206
			c-0.437,2.069,0.419,4.268,2.923,4.855c4.953,1.161,9.941,2.197,14.922,3.253c52.959,11.225,107.393,16.856,161.049,22.88
			C1088.127,1774.437,1156.578,1780.892,1225.106,1785.981z"/>
		<path style="fill:#561419;" d="M1029.738,1256.954c-0.412,0.061-0.788,0.063-1.246,0.208
			c-33.179,10.508-66.358,21.017-99.537,31.525c-16.382,5.189-32.697,10.757-49.212,15.503c-8.357,2.402-16.827,4.21-25.571,3.466
			c-8.217-0.699-16.105-3.156-23.82-5.959c-31.275-11.365-62.114-23.811-93.569-34.721c-32.007-11.1-64.268-21.463-96.751-31.079
			c-36.306-10.747-72.89-20.538-109.695-29.422c-2.545-0.614-5.951-0.191-7.667,2.055c-1.378,1.803-1.247,4.502,1.376,5.135
			c67.415,16.27,134.069,35.646,199.664,58.161c32.319,11.094,64.18,23.288,96.098,35.466c14.664,5.595,29.831,9.921,45.658,7.725
			c16.679-2.314,32.859-8.75,48.846-13.814c38.708-12.26,77.417-24.52,116.126-36.779c3.539-1.121,4.556-3.748,3.749-5.612
			C1033.607,1257.474,1032.06,1256.612,1029.738,1256.954z"/>
		<path style="fill:#561419;" d="M567.507,1522.014c-0.362-0.275-0.802-0.531-1.413-0.739
			c-51.928-17.698-103.856-35.396-155.784-53.093c-4.485-1.528-12.74,4.936-6.308,7.128
			c50.577,17.237,101.155,34.474,151.731,51.711c1.351,0.46,2.702,0.921,4.053,1.381
			C563.846,1529.786,570.955,1524.632,567.507,1522.014z"/>
		<path style="fill:#561419;" d="M780.37,869.916c1.067-6.945,3.382-13.53,6.975-19.573c1.738-2.924,3.727-5.661,6.013-8.18
			c1.553-1.712,4.387-5.169,6.645-5.567c0.597,0.11,1.155,0.421,1.63,0.781c1.151,0.876,2.048,2.228,2.756,3.469
			c1.799,3.152,2.982,6.795,3.976,10.271c2.164,7.564,2.891,15.396,2.161,23.225c-0.463,4.969,10.515,3.156,10.911-1.102
			c0.678-7.276,0.25-14.686-1.399-21.812c-0.804-3.477-1.894-6.889-3.264-10.185c-1.215-2.923-2.62-6.056-4.978-8.245
			c-6.138-5.701-15.416-3.406-21.473,1.239c-5.43,4.164-9.927,9.793-13.375,15.672c-3.794,6.467-6.353,13.701-7.492,21.108
			C768.714,875.864,779.714,874.18,780.37,869.916z"/>
		<path style="fill:#561419;" d="M1264.444,1416.324c-1.31,0.649-3.056,2.233-3.828,3.968c-0.569,1.278-0.625,2.636,0.491,3.773
			c22.032,22.465,37.336,50.518,44.159,81.24c1.549,6.975,16.028,3.199,14.457-3.874c-6.995-31.502-22.817-60.822-45.416-83.863
			c-0.259-0.265-0.582-0.399-0.867-0.615C1270.867,1414.99,1267.412,1414.854,1264.444,1416.324z"/>
		<path style="fill:#561419;" d="M842.768,1705.748c0.314,4.431,14.837,1.479,14.457-3.874
			c-6.635-93.569,6.909-187.994,39.338-276.004c1.667-4.525-12.706-2.783-14.432,1.901
			C849.466,1516.422,836.086,1611.516,842.768,1705.748z"/>
		<path style="fill:#561419;" d="M567.869,795.999c1.247-1.009,2.604-1.876,3.958-2.742c6.623,15.833,8.688,33.519,5.309,51.089
			c-0.877,4.556,10.105,2.895,10.889-1.182c6.487-33.727-6.186-68.55-33.118-89.916c-2.047-1.624-4.938-1.37-7.239-0.339
			c-1.162,0.521-4.84,3.128-2.783,4.759c10.914,8.659,19.406,19.531,25.175,31.625c-16.412,8.154-29.026,23.031-31.902,41.535
			c-0.3,1.926,3.299,1.318,4.362,1.135c1.287-0.223,6.058-1.179,6.342-3.007c1.339-8.614,4.832-16.847,10.092-23.804
			C561.524,801.754,564.561,798.677,567.869,795.999z"/>
		<path style="fill:#561419;" d="M699.065,886.859c-1.337-3.151-11.962,0.266-10.842,2.905
			c11.009,25.937,37.024,43.854,65.103,45.381c2.543,0.138,5.642-0.378,7.668-2.054c1.506-1.247,1.541-2.926-0.819-3.054
			C733.709,928.597,709.401,911.206,699.065,886.859z"/>
	</g>
</g>
</svg>
