<?xml version="1.0" encoding="utf-8"?>
<!-- Generator: Adobe Illustrator 27.5.0, SVG Export Plug-In . SVG Version: 6.00 Build 0)  -->
<svg version="1.1" id="Layer_1" xmlns="http://www.w3.org/2000/svg" xmlns:xlink="http://www.w3.org/1999/xlink" x="0px" y="0px"
	 viewBox="0 0 2633 2000" style="enable-background:new 0 0 2633 2000;" xml:space="preserve">
<g>
	<g>
		<rect style="fill:#FFFFFF;" width="2633" height="2000"/>
	</g>
</g>
<g>
	<g>
		<path style="fill:#E2F2F1;" d="M684.879,1835.952l-155.983-3.803c0,0-359.773-140.917-334.566-675.442
			c25.206-534.526,632.769-873.839,818.568-920.374c185.799-46.534,325.402-56.229,381.632,77.558
			c56.229,133.786,107.061,190.015,190.225,188.076s600.031-53.32,780.148,205.527
			c156.715,225.218,232.492,603.977-135.905,1104.222L684.879,1835.952z"/>
	</g>
	<g>
		<g>
			<g>
				<path style="fill:#7FC6A6;" d="M1883.044,1467.821c0,0,90.058-155.965,143.71-63.634c0,0,99.816-179.671,180.918-116.037
					c81.102,63.633-42.422,393.029-42.422,393.029s133.505-128.515,89.835,62.386c0,0,56.147-42.56,92.331-28.767
					c36.184,13.794,4.99,121.153,4.99,121.153h-546.339L1883.044,1467.821z"/>
			</g>
		</g>
		<g>
			<g>
				<path d="M2132.223,1301.764c-0.243,0-0.482-0.114-0.632-0.329c-0.241-0.349-0.155-0.827,0.192-1.069
					c0.271-0.188,27.303-18.75,50.605-14.138c0.416,0.082,0.688,0.486,0.605,0.903c-0.083,0.416-0.49,0.685-0.903,0.604
					c-22.661-4.485-49.165,13.707-49.431,13.892C2132.527,1301.72,2132.374,1301.764,2132.223,1301.764z"/>
			</g>
		</g>
		<g>
			<g>
				<path d="M2150.213,1303.444c-0.244,0-0.484-0.116-0.634-0.333c-0.24-0.35-0.152-0.827,0.196-1.068
					c0.503-0.345,12.537-8.455,34.275-7.508c0.424,0.019,0.753,0.377,0.734,0.802c-0.019,0.423-0.365,0.755-0.802,0.733
					c-21.19-0.92-33.217,7.157-33.336,7.238C2150.515,1303.4,2150.363,1303.444,2150.213,1303.444z"/>
			</g>
		</g>
		<g>
			<g>
				<path d="M2207.945,1662.689c-0.189,0-0.378-0.068-0.526-0.208c-0.31-0.29-0.325-0.776-0.034-1.086
					c0.578-0.616,14.326-15.086,29.281-15.295c0.004,0,0.008,0,0.011,0c0.42,0,0.763,0.337,0.769,0.758
					c0.006,0.425-0.333,0.773-0.758,0.779c-14.297,0.199-28.045,14.663-28.183,14.81
					C2208.354,1662.608,2208.149,1662.689,2207.945,1662.689z"/>
			</g>
		</g>
		<g>
			<g>
				<path d="M2219.151,1661.381c-0.19,0-0.38-0.07-0.528-0.211c-0.308-0.292-0.321-0.777-0.029-1.086
					c0.264-0.278,6.627-6.862,20.121-9.12c0.419-0.073,0.814,0.212,0.886,0.631c0.069,0.418-0.213,0.814-0.631,0.885
					c-12.952,2.167-19.199,8.598-19.261,8.662C2219.558,1661.301,2219.354,1661.381,2219.151,1661.381z"/>
			</g>
		</g>
	</g>
	<g>
		<g>
			<g>
				<g>
					<path style="fill:#7FC6A6;" d="M943.301,1835.952c-6.237-4.989-108.526-202.854-175.887-109.298
						c0,0-101.041-343.042-239.505-326.825s-21.207,270.691-21.207,270.691s-118.505-48.649-91.062,79.835
						c0,0-150.938-27.443-139.711,81.083L943.301,1835.952z"/>
				</g>
			</g>
			<g>
				<g>
					<path style="fill:#7FC6A6;" d="M376.271,1508.496c18.465,22.277,23.76,48.355,11.826,58.248
						c-11.934,9.892-36.578-0.148-55.043-22.426c-18.465-22.277-23.76-48.355-11.826-58.248
						C333.162,1476.179,357.805,1486.219,376.271,1508.496z"/>
				</g>
			</g>
			<g>
				<g>
					<path style="fill:#7FC6A6;" d="M348.099,1596.161c10.931,13.188,14.065,28.626,7,34.481
						c-7.064,5.856-21.653-0.088-32.585-13.275c-10.931-13.188-14.065-28.625-7-34.481
						C322.579,1577.029,337.167,1582.974,348.099,1596.161z"/>
				</g>
			</g>
		</g>
		<g>
			<g>
				<path d="M580.177,1451.3c0.362,0,0.726-0.136,1.007-0.407c0.575-0.556,0.591-1.473,0.036-2.048
					c-1.011-1.048-25.064-25.647-50.86-25.647c-0.006,0-0.009,0-0.015,0c-0.8,0.001-1.448,0.65-1.448,1.45s0.649,1.448,1.449,1.448
					c0.002-0.001,0.008,0,0.014,0c24.556,0,48.537,24.514,48.775,24.762C579.419,1451.151,579.798,1451.3,580.177,1451.3z"/>
			</g>
		</g>
		<g>
			<g>
				<path d="M560.854,1449.323c0.365,0,0.729-0.137,1.011-0.411c0.572-0.559,0.584-1.476,0.026-2.049
					c-0.463-0.476-11.606-11.681-34.937-15.243c-0.797-0.118-1.53,0.424-1.65,1.214c-0.121,0.791,0.422,1.53,1.213,1.651
					c22.379,3.417,33.192,14.29,33.299,14.399C560.1,1449.177,560.476,1449.323,560.854,1449.323z"/>
			</g>
		</g>
		<g>
			<g>
				<path d="M852.597,1753.8c0.362,0,0.726-0.135,1.007-0.407c0.575-0.556,0.591-1.473,0.036-2.048
					c-1.011-1.048-25.065-25.646-50.86-25.646c-0.834,0.017-1.464,0.643-1.464,1.449c0,0.8,0.649,1.448,1.449,1.448
					c0-0.001,0.009,0,0.015,0c24.579,0,48.537,24.514,48.775,24.762C851.838,1753.651,852.218,1753.8,852.597,1753.8z"/>
			</g>
		</g>
		<g>
			<g>
				<path d="M833.272,1751.821c0.365,0,0.73-0.137,1.012-0.411c0.571-0.56,0.583-1.475,0.025-2.047
					c-0.462-0.476-11.605-11.681-34.936-15.242c-0.803-0.119-1.53,0.423-1.651,1.213c-0.121,0.792,0.423,1.531,1.213,1.652
					c22.302,3.404,33.192,14.291,33.298,14.4C832.519,1751.676,832.896,1751.821,833.272,1751.821z"/>
			</g>
		</g>
	</g>
	<g>
		<g>
			<path style="fill:#FFFFFF;" d="M907.628,503.366c74.081-5.093,254.809-14.915,363.693,1.331
				c15.736,2.348,26.181-16.103,15.862-28.213c-7.441-8.733-20.665-16.072-43.944-17.123c0,0,21.588-101.042-76.151-110.621
				c-100.439-9.844-101.88,96.435-101.88,96.435s-58.691-55.772-87.199,13.203c0,0-62.012-27.183-90.161,6.498
				C874.589,480.74,887.001,504.784,907.628,503.366z"/>
		</g>
	</g>
	<g>
		<g>
			<path style="fill:#FFFFFF;" d="M406.375,914.922c40.138-3.97,134.29-11.897,216.569-8.378
				c34.041,1.456,62.207-26.854,60.035-60.857c-0.889-13.917-6.557-29.915-20.247-47.742
				c-52.711-68.642-136.451,2.464-134.134,38.32c0,0-19.732-53.318-72.476-41.657c-52.744,11.662-30.698,89.478-30.698,89.478
				s-17.297-2.913-28.847,5.693C385.22,898.242,392.28,916.316,406.375,914.922z"/>
		</g>
	</g>
	<g>
		<g>
			<path style="fill:#FFFFFF;" d="M1820.749,797.381c66.545-5.277,228.914-15.81,326.946-2.233
				c14.168,1.962,23.383-14.723,13.992-25.511c-6.771-7.78-18.727-14.252-39.664-14.977c0,0,18.454-91.033-69.497-98.722
				c-90.381-7.902-90.674,87.649-90.674,87.649s-53.285-49.582-78.262,12.69c0,0-56.001-23.85-80.986,6.691
				C1790.836,777.354,1802.22,798.851,1820.749,797.381z"/>
		</g>
	</g>
	<g>
		<path style="fill:#FECC86;" d="M1580.656,1113.579c0,0-40.708-32.518-42-79.698c-1.293-47.181,21.144-101.471,62.276-102.117
			c41.133-0.646,85.729,58.168,127.093,62.046c41.363,3.878,142.835-4.524,188.076,16.157
			c45.242,20.683,163.517,93.597,81.436,219.687c-82.082,126.09-158.993,115.672-158.993,115.672s-220.392-78.783-222.331-82.009
			c-1.938-3.227-57.521-73.675-57.521-76.906S1580.656,1113.579,1580.656,1113.579z"/>
	</g>
	<g>
		<path style="fill:#49263E;" d="M957.795,757.389c0,0,66.399-34.254,140.081-3.878c73.681,30.376,83.375,147.061,85.961,185.665
			c2.585,38.605,0,114.87,0,114.87s-48.982,28.438-122.73,25.206c-73.749-3.231-175.219-14.865-201.718-31.023
			C832.89,1032.071,855.198,817.496,957.795,757.389z"/>
	</g>
	<g>
		<path style="fill:#61A3C5;" d="M948.09,1014.33c0,0-209.405,13.088-263.21,87.252c-53.805,74.164-21.813,660.206,0,734.37h654.768
			l-42.55-619.488c0,0-26.176-139.604-79.012-161.417C1165.25,1033.234,948.09,1014.33,948.09,1014.33z"/>
	</g>
	<g>
		<g>
			<path d="M2447.369,1841.406H184.635c-3.012,0-5.453-2.442-5.453-5.453c0-3.012,2.441-5.454,5.453-5.454h2262.734
				c3.012,0,5.453,2.442,5.453,5.454C2452.822,1838.964,2450.381,1841.406,2447.369,1841.406z"/>
		</g>
	</g>
	<g>
		<path style="fill:#FD7583;" d="M1403.254,1239.73h160.123c0,0,195.671,0.97,259.656,13.572
			c63.984,12.604,123.849,69.802,137.543,148.329c13.693,78.526-8.604,264.664-61.925,359.672
			c-53.321,95.008-127.97,151.236-146.39,150.267c-18.42-0.969-128.987-31.992-128.987-31.992
			c-10.821-0.038-225.19-15.834-296.608-47.504c-91.291-40.481-91.598-341.163-91.598-341.163l10.81-18.186l-16.279-16.622
			l-4.403-35.533c0,0,32.639-115.852,41.364-121.2C1275.284,1294.021,1403.254,1239.73,1403.254,1239.73z"/>
	</g>
	<g>
		<path style="fill:#FE9F73;" d="M1683.238,1257.862c-0.531-33.281-3.378-66.597-5.705-84.653
			c-4.889-9.795-11.269-16.326-17.511-20.688c-12.681-5.84-33.44-13.423-59.904-16.364h-1.272h-0.748h-1.272
			c-26.464,2.941-47.224,10.524-59.904,16.364c-6.242,4.361-12.623,10.893-17.511,20.688c-2.327,18.057-5.174,51.372-5.705,84.653
			c-0.252,15.854,1.91,31.6,6.429,46.51l-0.038-0.038c0,0,10.232,75.268,72.667,74.213c1.492,0.022,12.784,0,12.784,0
			c62.435,1.055,72.667-76.303,72.667-76.303l-0.574-0.636C1681.604,1287.523,1683.475,1272.737,1683.238,1257.862z"/>
	</g>
	<g>
		<g>
			<path style="fill:#F07162;" d="M1594.925,1336.484c0.47,0,0.894-0.326,0.996-0.807c0.117-0.549-0.233-1.091-0.784-1.21
				c-6.563-1.405-10.703-9.489-11.894-12.129c9.324-4.978,15.012-11.452,16.912-19.253c3.096-12.715-4.963-24.212-5.308-24.694
				c-0.327-0.458-0.963-0.563-1.421-0.239c-0.458,0.327-0.565,0.964-0.239,1.422c0.078,0.111,7.865,11.245,4.982,23.044
				c-1.813,7.426-7.432,13.599-16.699,18.347l-0.814,0.418l0.328,0.856c0.193,0.502,4.831,12.318,13.726,14.224
				C1594.782,1336.477,1594.854,1336.484,1594.925,1336.484z"/>
		</g>
	</g>
	<g>
		<g>
			<path style="fill:#FECC86;" d="M1661.204,1268.152c-0.493-0.076-1.015,0.016-1.473,0.296c-16.128,9.89-35.323,0.084-35.515-0.015
				c-1.074-0.559-2.386-0.143-2.942,0.925c-0.558,1.068-0.144,2.386,0.924,2.942c0.874,0.456,21.604,11.032,39.813-0.133
				c1.026-0.63,1.349-1.973,0.72-3C1662.383,1268.6,1661.815,1268.247,1661.204,1268.152z"/>
		</g>
	</g>
	<g>
		<g>
			<path style="fill:#FECC86;" d="M1543.35,1268.152c0.492-0.076,1.015,0.016,1.473,0.296c16.128,9.89,35.322,0.084,35.514-0.015
				c1.074-0.559,2.386-0.143,2.943,0.925c0.558,1.068,0.144,2.386-0.925,2.942c-0.873,0.456-21.604,11.032-39.813-0.133
				c-1.026-0.63-1.348-1.973-0.719-3C1542.171,1268.6,1542.738,1268.247,1543.35,1268.152z"/>
		</g>
	</g>
	<g>
		<path style="fill:#F75553;" d="M1616.295,1109.408c-6.346-0.209-12.979-0.714-31.352,0.615
			c-18.397,1.331-16.198,17.542-16.198,17.542l32.202,7.354l0.285-2.518l0.049,2.512l31.889-8.614
			C1633.17,1126.3,1634.73,1110.016,1616.295,1109.408z"/>
	</g>
	<g>
		<path d="M1565.049,1299.586c-0.114,0-0.229-0.001-0.345-0.003c-12.098-0.205-14.783-10.899-14.809-11.007
			c-0.14-0.586,0.223-1.174,0.808-1.313c0.579-0.14,1.174,0.222,1.313,0.808c0.091,0.371,2.351,9.156,12.724,9.332
			c0.104,0.002,0.206,0.002,0.306,0.002c9.971,0,10.842-8.378,10.874-8.738c0.054-0.601,0.594-1.032,1.184-0.989
			c0.6,0.055,1.043,0.585,0.988,1.185C1578.083,1288.97,1576.983,1299.586,1565.049,1299.586z"/>
	</g>
	<g>
		<path d="M1638.811,1299.586c-0.115,0-0.229-0.001-0.345-0.003c-12.098-0.205-14.783-10.899-14.81-11.007
			c-0.139-0.586,0.223-1.174,0.809-1.313c0.581-0.14,1.175,0.221,1.313,0.807c0.099,0.403,2.37,9.157,12.724,9.333
			c0.104,0.002,0.205,0.002,0.306,0.002c9.97,0,10.842-8.378,10.873-8.738c0.055-0.601,0.591-1.032,1.185-0.989
			c0.6,0.055,1.043,0.585,0.988,1.185C1651.844,1288.97,1650.745,1299.586,1638.811,1299.586z"/>
	</g>
	<g>
		<path style="fill:#F07162;" d="M1584.755,1351.83c-0.316,0-0.631-0.137-0.846-0.401c-0.382-0.466-0.313-1.153,0.154-1.534
			c14.988-12.238,28.666-0.729,28.803-0.612c0.456,0.394,0.506,1.081,0.114,1.536c-0.394,0.457-1.079,0.509-1.538,0.117
			c-0.501-0.43-12.45-10.416-25.999,0.648C1585.241,1351.75,1584.996,1351.83,1584.755,1351.83z"/>
	</g>
	<g>
		<path d="M1964.519,1422.206c-0.004,0-0.008,0-0.014,0c-0.903-0.007-1.63-0.746-1.622-1.649
			c0.518-62.677-52.162-137.261-110.521-156.48c-21.478-7.072-53.24-12.52-94.405-16.189c-0.9-0.08-1.564-0.875-1.485-1.775
			c0.08-0.9,0.887-1.567,1.774-1.484c41.415,3.692,73.424,9.19,95.139,16.342c59.548,19.61,113.297,95.688,112.77,159.615
			C1966.147,1421.482,1965.417,1422.206,1964.519,1422.206z"/>
	</g>
	<g>
		<path style="fill:#FECC86;" d="M1504.234,1252.7c0,0,74.891,32.962,139.596-35.547v-32.315l8.388,33.608
			c0,0,14.979,36.193,39.542,33.608c0,0,23.781-127.692-84.152-129.955C1478.535,1119.395,1504.234,1252.7,1504.234,1252.7z"/>
	</g>
	<g>
		<g>
			<g>
				<path style="fill:#FE9F73;" d="M1541.5,1277.27c0,15.361-12.453,27.814-27.814,27.814c-15.362,0-27.815-12.453-27.815-27.814
					c0-15.362,12.453-27.815,27.815-27.815C1529.047,1249.454,1541.5,1261.907,1541.5,1277.27z"/>
			</g>
		</g>
		<g>
			<g>
				<path style="fill:#F07162;" d="M1511.627,1294.433c-5.839,0-9.737-4.385-11.021-8.769c-1.519-5.186,0.224-10.227,4.439-12.843
					c6.001-3.724,11.458-1.546,14.425,0.317c-1.195-2.961-3.019-5.127-5.439-6.455c-5.449-2.991-12.174-0.806-12.241-0.783
					c-0.469,0.154-0.971-0.1-1.126-0.563c-0.156-0.467,0.096-0.971,0.563-1.128c0.306-0.103,7.537-2.452,13.662,0.912
					c3.539,1.943,5.946,5.377,7.154,10.209l0.774,3.098l-2.268-2.251c-0.274-0.274-6.833-6.643-14.564-1.842
					c-4.272,2.651-4.646,7.49-3.67,10.828c1.025,3.502,4.11,7.55,9.452,7.487c0.482-0.013,0.896,0.384,0.903,0.878
					c0.007,0.492-0.386,0.896-0.878,0.903C1511.738,1294.432,1511.683,1294.433,1511.627,1294.433z"/>
			</g>
		</g>
	</g>
	<g>
		<path d="M1673.562,1671.036c-0.141,0-0.283-0.019-0.425-0.057c-0.873-0.233-1.391-1.131-1.157-2.004l66.745-248.829
			c0.234-0.873,1.136-1.389,2.005-1.156c0.872,0.233,1.39,1.131,1.156,2.004l-66.745,248.829
			C1674.945,1670.555,1674.283,1671.036,1673.562,1671.036z"/>
	</g>
	<g>
		<path d="M1429.428,1621.397c-0.791,0-1.485-0.573-1.614-1.379l-34.9-219.1c-0.142-0.892,0.467-1.73,1.358-1.872
			c0.897-0.142,1.73,0.466,1.873,1.358l34.9,219.099c0.143,0.893-0.466,1.73-1.357,1.873
			C1429.6,1621.391,1429.513,1621.397,1429.428,1621.397z"/>
	</g>
	<g>
		<path d="M1491.456,1868.541c-0.062,0-0.124-0.003-0.187-0.011c-5.629-0.639-138.331-15.979-179.858-44.12
			c-41.79-28.318-58.963-145.54-59.675-150.517c-0.128-0.894,0.494-1.723,1.389-1.851c0.891-0.128,1.722,0.494,1.851,1.389
			c0.172,1.204,17.675,120.761,58.271,148.27c40.861,27.689,177.021,43.423,178.39,43.579c0.898,0.102,1.544,0.912,1.441,1.81
			C1492.984,1867.925,1492.277,1868.541,1491.456,1868.541z"/>
	</g>
	<g>
		<path d="M1232.141,1230.138c-0.761,0-1.444-0.536-1.601-1.312l-30.215-148.993c-0.18-0.886,0.392-1.749,1.278-1.929
			c0.877-0.174,1.749,0.393,1.928,1.278l30.215,148.993c0.18,0.886-0.392,1.748-1.278,1.929
			C1232.358,1230.126,1232.25,1230.138,1232.141,1230.138z"/>
	</g>
	<g>
		<path d="M1499.798,1827.866c-0.119,0-0.242-0.014-0.363-0.041c-0.881-0.2-1.434-1.077-1.233-1.958
			c26.793-118.024,58.356-185.712,58.673-186.382c0.384-0.817,1.357-1.167,2.177-0.782c0.816,0.385,1.167,1.359,0.781,2.177
			c-0.313,0.667-31.734,68.069-58.439,185.712C1501.22,1827.352,1500.545,1827.866,1499.798,1827.866z"/>
	</g>
	<g>
		<path d="M1542.418,1251.101c-0.606,0-0.944-0.011-0.983-0.012c-0.902-0.037-1.604-0.798-1.568-1.7
			c0.035-0.902,0.782-1.604,1.699-1.57c0.501,0.025,50.882,1.526,83.882-39.015c0.568-0.701,1.601-0.806,2.302-0.236
			c0.7,0.57,0.806,1.601,0.235,2.302C1596.525,1249.518,1549.773,1251.101,1542.418,1251.101z"/>
	</g>
	<g>
		<g>
			<path d="M1432.984,1443.016c-0.52,0-1.03-0.247-1.348-0.708c-13.798-20.04-10.43-39.506-10.279-40.325
				c0.163-0.888,1.013-1.477,1.902-1.313c0.888,0.161,1.477,1.013,1.316,1.9c-0.034,0.188-3.243,19.002,9.755,37.882
				c0.513,0.744,0.325,1.763-0.42,2.275C1433.628,1442.923,1433.306,1443.016,1432.984,1443.016z"/>
		</g>
		<g>
			<path d="M1450.436,1453.033c-0.502,0-0.997-0.229-1.318-0.664c-14.674-19.894-15.479-39.518-15.506-40.343
				c-0.03-0.903,0.677-1.658,1.579-1.688c0.917-0.011,1.659,0.676,1.69,1.579c0.006,0.192,0.828,19.474,14.87,38.509
				c0.536,0.728,0.381,1.752-0.346,2.288C1451.112,1452.93,1450.772,1453.033,1450.436,1453.033z"/>
		</g>
	</g>
	<g>
		<g>
			<path d="M1753.746,1868.332c-0.799,0-1.497-0.584-1.617-1.396c-0.131-0.895,0.486-1.726,1.38-1.857
				c22.676-3.347,34.262-18.514,34.376-18.666c0.541-0.723,1.566-0.873,2.289-0.332s0.873,1.563,0.334,2.287
				c-0.497,0.668-12.452,16.396-36.521,19.947C1753.905,1868.327,1753.825,1868.332,1753.746,1868.332z"/>
		</g>
		<g>
			<path d="M1734.523,1862.383c-0.82,0-1.527-0.615-1.623-1.45c-0.102-0.897,0.542-1.708,1.439-1.812
				c23.502-2.688,38.174-15.224,38.319-15.35c0.683-0.592,1.716-0.52,2.308,0.161c0.593,0.682,0.521,1.714-0.159,2.307
				c-0.623,0.543-15.535,13.323-40.095,16.133C1734.648,1862.38,1734.586,1862.383,1734.523,1862.383z"/>
		</g>
	</g>
	<g>
		<g>
			<path d="M746.528,1767.1c-0.303,0-0.609-0.083-0.883-0.26c-20.468-13.153-24.88-32.41-25.058-33.224
				c-0.193-0.882,0.365-1.752,1.247-1.945c0.878-0.192,1.753,0.362,1.949,1.245c0.042,0.186,4.349,18.779,23.632,31.172
				c0.76,0.488,0.98,1.501,0.492,2.261C747.593,1766.835,747.066,1767.1,746.528,1767.1z"/>
		</g>
		<g>
			<path d="M766.494,1769.6c-0.286,0-0.575-0.075-0.838-0.232c-21.22-12.68-29.542-30.47-29.887-31.221
				c-0.376-0.821-0.016-1.791,0.805-2.167c0.821-0.376,1.792-0.017,2.169,0.804c0.081,0.175,8.285,17.643,28.591,29.775
				c0.775,0.464,1.028,1.468,0.565,2.244C767.593,1769.315,767.051,1769.6,766.494,1769.6z"/>
		</g>
	</g>
	<g>
		<g>
			<path d="M848.688,1193.242c-0.753,0-1.432-0.525-1.598-1.292c-0.04-0.187-4.262-18.799-23.488-31.28
				c-0.758-0.492-0.973-1.505-0.481-2.263c0.493-0.758,1.504-0.973,2.263-0.481c20.407,13.248,24.731,32.524,24.906,33.339
				c0.189,0.882-0.374,1.75-1.256,1.939C848.917,1193.229,848.802,1193.242,848.688,1193.242z"/>
		</g>
		<g>
			<path d="M833.638,1188.974c-0.622,0-1.217-0.356-1.491-0.96c-0.08-0.175-8.204-17.68-28.454-29.906
				c-0.773-0.467-1.022-1.473-0.555-2.246c0.466-0.773,1.471-1.023,2.246-0.555c21.162,12.777,29.403,30.605,29.743,31.357
				c0.372,0.823,0.007,1.791-0.815,2.164C834.094,1188.927,833.864,1188.974,833.638,1188.974z"/>
		</g>
	</g>
	<g>
		<path d="M1295.886,1208.405c-0.699,0-1.344-0.45-1.563-1.151l-24.657-79.363c-25.519-66.515-51.553-71.184-51.813-71.224
			c-0.888-0.135-1.508-0.962-1.38-1.852c0.129-0.891,0.948-1.509,1.835-1.389c1.134,0.155,28.053,4.581,54.449,73.393l24.692,79.464
			c0.269,0.863-0.214,1.779-1.077,2.048C1296.209,1208.381,1296.045,1208.405,1295.886,1208.405z"/>
	</g>
	<g>
		<path style="fill:#FE9F73;" d="M1110.96,1336.484c0,0,87.736-104.832,109.388-114.527c21.651-9.694,64.308-22.944,72.387-17.45
			c0,0,45.888-13.164,60.753,8.402c0,0,26.498-5.817,34.9,20.035c0,0,22.028-1.933,24.883,15.188
			c2.908,17.445-30.376,17.977-52.351,29.832s-52.675,31.567-74.326,72.932c-21.651,41.363-39.99,88.221-56.997,107.61
			C1229.598,1458.507,1140.509,1365.135,1110.96,1336.484z"/>
	</g>
	<g>
		<path style="fill:#F07162;" d="M1317.215,1260.271c-0.447,0-0.891-0.182-1.214-0.539c-0.606-0.671-0.554-1.705,0.116-2.311
			c0.732-0.663,18.109-16.279,32.563-21.18c14.39-4.878,38.681-4.934,39.708-4.934c0.903,0,1.636,0.732,1.636,1.636
			s-0.732,1.636-1.636,1.636c-0.246,0-24.781,0.058-38.657,4.761c-13.81,4.682-31.246,20.351-31.421,20.508
			C1317.998,1260.132,1317.606,1260.271,1317.215,1260.271z"/>
	</g>
	<g>
		<path style="fill:#F07162;" d="M1266.318,1245.729c-0.497,0-0.987-0.226-1.309-0.653c-0.542-0.722-0.397-1.748,0.325-2.29
			c1.038-0.78,25.6-19.167,41.942-24.249c13.259-4.124,44.725-7.131,46.057-7.257c0.906-0.097,1.698,0.574,1.783,1.475
			c0.085,0.899-0.575,1.698-1.474,1.782c-0.324,0.031-32.46,3.102-45.396,7.124c-15.8,4.913-40.698,23.552-40.947,23.739
			C1267.006,1245.622,1266.66,1245.729,1266.318,1245.729z"/>
	</g>
	<g>
		<path style="fill:#F07162;" d="M1232.144,1237.731c-0.41,0-0.821-0.153-1.139-0.462c-0.648-0.629-0.665-1.664-0.036-2.313
			c0.453-0.466,11.209-11.5,23.261-18.916c7.463-4.594,38.489-13.203,39.807-13.567c0.867-0.241,1.771,0.27,2.012,1.141
			c0.242,0.87-0.27,1.771-1.141,2.013c-0.317,0.088-31.892,8.849-38.963,13.2c-11.695,7.197-22.519,18.297-22.626,18.408
			C1232.997,1237.565,1232.57,1237.731,1232.144,1237.731z"/>
	</g>
	<g>
		<g>
			<g>
				<path style="fill:#FE9F73;" d="M1114.208,818.162c0,0-7.849,144.358-31.249,165.617c0,0-11.649,11.465-33.693,7.761
					l-14.884,82.769l-96.815-31.295l43.914-235.08c0,0,39.92-52.262,39.472-49.865
					C1020.505,760.465,1114.208,818.162,1114.208,818.162z"/>
			</g>
		</g>
	</g>
	<g>
		<g>
			<g>
				<path style="fill:#F07162;" d="M1065.99,922.036c-0.415-0.078-0.734-0.435-0.746-0.875c-0.013-0.504,0.385-0.923,0.89-0.938
					c6.019-0.158,10.999-6.604,12.483-8.735c-7.4-5.924-11.349-12.569-11.739-19.759c-0.636-11.719,8.363-20.529,8.747-20.897
					c0.363-0.35,0.941-0.338,1.292,0.023c0.35,0.363,0.339,0.942-0.023,1.293c-0.088,0.085-8.786,8.619-8.188,19.496
					c0.376,6.846,4.313,13.213,11.701,18.926l0.65,0.503l-0.431,0.7c-0.253,0.411-6.288,10.065-14.444,10.28
					C1066.117,922.052,1066.052,922.047,1065.99,922.036z"/>
			</g>
		</g>
	</g>
	<g>
		<g>
			<g>
				<path style="fill:#F07162;" d="M1044.014,1019.656l5.252-28.117c0,0-47.01-11.676-72.736-35.497
					C976.529,956.043,1008.997,1001.488,1044.014,1019.656z"/>
			</g>
		</g>
	</g>
	<g>
		<g>
			<g>
				<path d="M1049.829,888.452c-0.517,2.765-3.176,4.587-5.941,4.071c-2.765-0.517-4.588-3.177-4.071-5.942
					c0.517-2.765,3.177-4.588,5.941-4.071C1048.522,883.026,1050.345,885.687,1049.829,888.452z"/>
			</g>
		</g>
	</g>
	<g>
		<g>
			<g>
				<path d="M1096.923,897.249c-0.517,2.765-3.177,4.588-5.942,4.071c-2.765-0.517-4.587-3.177-4.071-5.941
					c0.516-2.765,3.176-4.588,5.941-4.071S1097.44,894.484,1096.923,897.249z"/>
			</g>
		</g>
	</g>
	<g>
		<g>
			<path style="fill:#49263E;" d="M1104.744,885.072c-0.52,0-1.031-0.247-1.349-0.707c-0.079-0.113-7.941-11.318-20.31-12.504
				c-0.899-0.086-1.558-0.885-1.472-1.784c0.086-0.9,0.884-1.562,1.785-1.473c13.915,1.333,22.341,13.395,22.693,13.908
				c0.511,0.744,0.322,1.761-0.422,2.272C1105.386,884.979,1105.063,885.072,1104.744,885.072z"/>
		</g>
	</g>
	<g>
		<g>
			<path style="fill:#49263E;" d="M1032.422,871.869c-0.52,0-1.031-0.247-1.348-0.708c-0.513-0.743-0.325-1.762,0.418-2.275
				c0.513-0.352,12.699-8.6,26.167-4.869c0.872,0.241,1.381,1.143,1.14,2.013c-0.241,0.871-1.146,1.381-2.013,1.14
				c-12.016-3.328-23.323,4.332-23.436,4.409C1033.067,871.775,1032.743,871.869,1032.422,871.869z"/>
		</g>
	</g>
	<g>
		<path style="fill:#F07162;" d="M1060.166,944.747c-20.713,0-25.163-18.448-25.206-18.637c-0.134-0.587,0.232-1.171,0.819-1.305
			c0.586-0.132,1.171,0.232,1.307,0.818c0.163,0.704,4.14,16.943,23.067,16.943c0.343,0,0.691-0.005,1.045-0.016
			c0.557-0.024,1.104,0.454,1.123,1.057c0.019,0.603-0.455,1.105-1.056,1.124C1060.895,944.741,1060.526,944.747,1060.166,944.747z"
			/>
	</g>
	<g>
		<path style="fill:#49263E;" d="M1029.771,756.024l-12.294,43.951c0,0,61.546,68.5,112.952,64.941
			c51.406-3.558,9.926-74.2,9.926-74.2s-35.486,10.023-37.313-16.653c-2.021-29.493-60.37-21.501-63.314-21.651
			C1036.784,752.262,1029.771,756.024,1029.771,756.024z"/>
	</g>
	<g>
		<path style="fill:#49263E;" d="M1036.024,754.351l-10.137,33.285c0,0-12.876,76.592-44.448,91.132
			c-31.572,14.54-43.872-1.934-43.872-1.934l16.345-73.687c0,0,38.857-43.757,38.573-42.579
			C992.2,761.748,1036.024,754.351,1036.024,754.351z"/>
	</g>
	<g>
		<g>
			<g>
				<g>
					<path style="fill:#FE9F73;" d="M984.908,898.496c-2.896,15.502-17.81,25.721-33.312,22.825
						c-15.502-2.896-25.721-17.81-22.825-33.312c2.896-15.501,17.81-25.721,33.312-22.825
						C977.585,868.08,987.804,882.994,984.908,898.496z"/>
				</g>
			</g>
		</g>
		<g>
			<g>
				<g>
					<path style="fill:#F07162;" d="M951.527,910.185c-5.892-1.101-9-6.261-9.469-10.926c-0.554-5.519,2.154-10.277,6.901-12.123
						c6.758-2.627,11.853,0.6,14.496,3.039c-0.649-3.213-2.079-5.742-4.272-7.539c-4.935-4.044-12.133-3.108-12.205-3.098
						c-0.503,0.068-0.961-0.283-1.031-0.781c-0.069-0.5,0.28-0.961,0.781-1.032c0.327-0.046,8.068-1.054,13.614,3.496
						c3.206,2.628,4.987,6.546,5.295,11.65l0.197,3.272l-1.863-2.699c-0.226-0.329-5.643-7.991-14.35-4.604
						c-4.811,1.87-6.101,6.683-5.744,10.235c0.374,3.727,2.724,8.393,8.127,9.337c0.489,0.079,0.831,0.557,0.746,1.057
						c-0.086,0.498-0.559,0.831-1.056,0.746C951.64,910.204,951.583,910.195,951.527,910.185z"/>
				</g>
			</g>
		</g>
	</g>
	<g>
		<path style="fill:#FE9F73;" d="M1032.421,1089.948c60.797-4.567,107.927-24.326,142.651-46.452
			c-81.835-16.53-226.982-29.166-226.982-29.166s-56.13,3.509-117.736,17.185C853.903,1053.731,916.613,1098.648,1032.421,1089.948z
			"/>
	</g>
	<g>
		<g>
			<path style="fill:#F75553;" d="M1030.979,896.277c0.702,0,0.703-1.091,0-1.091
				C1030.277,895.187,1030.276,896.277,1030.979,896.277L1030.979,896.277z"/>
		</g>
	</g>
	<g>
		<g>
			<path style="fill:#F75553;" d="M1038.25,898.377c0.702,0,0.703-1.09,0-1.09C1037.548,897.287,1037.547,898.377,1038.25,898.377
				L1038.25,898.377z"/>
		</g>
	</g>
	<g>
		<g>
			<path style="fill:#F75553;" d="M1024.677,909.688c0.702,0,0.703-1.091,0-1.091
				C1023.976,908.597,1023.975,909.688,1024.677,909.688L1024.677,909.688z"/>
		</g>
	</g>
	<g>
		<g>
			<path style="fill:#F75553;" d="M1015.952,897.247c0.702,0,0.703-1.091,0-1.091
				C1015.25,896.156,1015.249,897.247,1015.952,897.247L1015.952,897.247z"/>
		</g>
	</g>
	<g>
		<g>
			<path style="fill:#F75553;" d="M1027.586,899.993c0.702,0,0.703-1.09,0-1.09C1026.884,898.903,1026.883,899.993,1027.586,899.993
				L1027.586,899.993z"/>
		</g>
	</g>
	<g>
		<g>
			<path style="fill:#F75553;" d="M1039.542,909.042c0.702,0,0.703-1.09,0-1.09C1038.841,907.951,1038.84,909.042,1039.542,909.042
				L1039.542,909.042z"/>
		</g>
	</g>
	<g>
		<g>
			<path style="fill:#F75553;" d="M1050.53,899.993c0.054,0,0.108,0,0.162,0c0.075,0.003,0.145-0.013,0.21-0.047
				c0.068-0.022,0.126-0.06,0.176-0.113c0.053-0.049,0.091-0.108,0.113-0.175c0.034-0.065,0.05-0.135,0.047-0.21
				c-0.006-0.049-0.013-0.097-0.02-0.145c-0.026-0.092-0.073-0.173-0.14-0.241c-0.037-0.028-0.074-0.057-0.11-0.085
				c-0.085-0.049-0.177-0.074-0.275-0.074c-0.054,0-0.108,0-0.162,0c-0.075-0.003-0.145,0.013-0.21,0.047
				c-0.068,0.022-0.126,0.06-0.176,0.113c-0.053,0.049-0.09,0.108-0.113,0.175c-0.034,0.065-0.05,0.135-0.047,0.21
				c0.007,0.048,0.013,0.097,0.02,0.145c0.026,0.093,0.073,0.173,0.14,0.241c0.037,0.029,0.074,0.057,0.11,0.085
				C1050.34,899.968,1050.432,899.993,1050.53,899.993L1050.53,899.993z"/>
		</g>
	</g>
	<g>
		<g>
			<path style="fill:#F75553;" d="M1060.225,908.072c0.702,0,0.703-1.091,0-1.091
				C1059.522,906.981,1059.521,908.072,1060.225,908.072L1060.225,908.072z"/>
		</g>
	</g>
	<g>
		<g>
			<path style="fill:#F75553;" d="M1061.032,899.832c0.702,0,0.703-1.091,0-1.091
				C1060.331,898.741,1060.33,899.832,1061.032,899.832L1061.032,899.832z"/>
		</g>
	</g>
	<g>
		<g>
			<path style="fill:#F75553;" d="M1074.928,896.438c0.702,0,0.703-1.09,0-1.09C1074.227,895.348,1074.225,896.438,1074.928,896.438
				L1074.928,896.438z"/>
		</g>
	</g>
	<g>
		<g>
			<path style="fill:#F75553;" d="M1081.068,904.194c0.702,0,0.703-1.091,0-1.091
				C1080.366,903.104,1080.365,904.194,1081.068,904.194L1081.068,904.194z"/>
		</g>
	</g>
	<g>
		<g>
			<path style="fill:#F75553;" d="M1091.57,905.325c0.702,0,0.703-1.09,0-1.09C1090.869,904.235,1090.868,905.325,1091.57,905.325
				L1091.57,905.325z"/>
		</g>
	</g>
	<g>
		<g>
			<path style="fill:#F75553;" d="M1091.732,915.505c0.701,0,0.703-1.091,0-1.091
				C1091.03,914.414,1091.029,915.505,1091.732,915.505L1091.732,915.505z"/>
		</g>
	</g>
	<g>
		<g>
			<path style="fill:#F75553;" d="M1101.104,915.667c0.702,0,0.703-1.091,0-1.091C1100.402,914.576,1100.4,915.667,1101.104,915.667
				L1101.104,915.667z"/>
		</g>
	</g>
	<g>
		<g>
			<path style="fill:#F75553;" d="M1099.326,908.719c0.702,0,0.703-1.091,0-1.091
				C1098.625,907.628,1098.624,908.719,1099.326,908.719L1099.326,908.719z"/>
		</g>
	</g>
	<g>
		<g>
			<path style="fill:#F75553;" d="M1086.4,913.889c0.702,0,0.703-1.091,0-1.091C1085.698,912.798,1085.697,913.889,1086.4,913.889
				L1086.4,913.889z"/>
		</g>
	</g>
	<g>
		<g>
			<path style="fill:#F75553;" d="M1087.208,923.422c0.702,0,0.703-1.09,0-1.09C1086.506,922.331,1086.505,923.422,1087.208,923.422
				L1087.208,923.422z"/>
		</g>
	</g>
	<g>
		<g>
			<path style="fill:#F75553;" d="M1031.625,885.936c0.702,0,0.703-1.09,0-1.09C1030.923,884.846,1030.922,885.936,1031.625,885.936
				L1031.625,885.936z"/>
		</g>
	</g>
	<g>
		<g>
			<path style="fill:#F75553;" d="M1050.853,913.566c0.702,0,0.703-1.091,0-1.091
				C1050.151,912.475,1050.15,913.566,1050.853,913.566L1050.853,913.566z"/>
		</g>
	</g>
	<g>
		<path d="M959.514,1741.855c-47.907,0-71.868-14.215-73.194-15.027c-0.77-0.471-1.012-1.477-0.541-2.247s1.479-1.013,2.247-0.544
			c0.431,0.262,43.891,25.929,130.02,8.195c35.531-7.314,85.915-54.578,145.704-136.679c42.01-57.687,75.194-114.157,80.088-122.571
			l-138.315-141.234c-12.41,10.512-120.321,102.823-151.635,159.949c-0.435,0.794-1.429,1.083-2.221,0.648
			c-0.792-0.435-1.083-1.429-0.648-2.221c33.37-60.877,152.362-160.859,153.56-161.861l1.16-0.971l142.175,145.174l-0.617,1.074
			c-0.349,0.607-35.471,61.551-80.885,123.916c-61.146,83.968-110.84,130.391-147.706,137.98
			C996.007,1740.111,976.288,1741.855,959.514,1741.855z"/>
	</g>
	<g>
		<path d="M951.806,1463.374c-0.407,0-0.815-0.151-1.131-0.455c-0.652-0.625-0.675-1.659-0.051-2.312
			c0.521-0.545,13.191-13.579,48.4-32.428c0.796-0.425,1.789-0.127,2.214,0.67c0.427,0.797,0.127,1.788-0.67,2.215
			c-34.664,18.556-47.457,31.676-47.581,31.807C952.665,1463.205,952.236,1463.374,951.806,1463.374z"/>
	</g>
	<g>
		<path d="M991.739,1435.691c-0.674,0-1.306-0.42-1.543-1.093c-0.883-2.505-89.006-251.249-151.359-313.602
			c-32.305-32.306-65.588-38.317-87.825-37.668c-24.073,0.702-40.66,9.093-40.826,9.178c-0.801,0.413-1.79,0.097-2.203-0.707
			s-0.096-1.79,0.708-2.203c0.699-0.359,17.419-8.815,42.225-9.538c22.881-0.662,57.102,5.494,90.234,38.625
			c62.874,62.873,151.247,312.314,152.132,314.827c0.3,0.853-0.147,1.786-1,2.087
			C992.103,1435.661,991.919,1435.691,991.739,1435.691z"/>
	</g>
	<g>
		<path style="fill:#FE9F73;" d="M1199.424,1505.85c0,0,0-11.634,12.36-14.3c12.361-2.666,41.041,3.716,45.403,6.382
			c4.363,2.666,54.452,51.059,54.452,51.059s41.687,37.81,50.412,39.748c8.726,1.939,154.99,55.98,154.99,55.98l-35.011,101.806
			l-11.561,65.191c0,0-114.236-50.412-131.687-63.016c-17.45-12.603-107.126-76.588-115.366-100.824s-35.709-55.906-54.29-75.618
			c0,0-9.856-16.481,5.009-23.591c0,0-8.212-17.127,7.756-22.298C1181.893,1526.369,1172.683,1507.627,1199.424,1505.85z"/>
	</g>
	<g>
		<path d="M1751.756,1913.212c-23.812,0-124.646-30.75-128.96-32.068l-0.17-0.063l-152.87-66.048l0.049-1.126
			c3.208-73.141,50.717-181.759,51.195-182.847l0.546-1.237l1.316,0.301c1.142,0.262,114.737,26.312,165.61,43.589l0.344,0.117
			l22.568,21.663c0.652,0.626,0.674,1.661,0.047,2.313c-0.625,0.654-1.66,0.674-2.313,0.048l-22.042-21.159
			c-47.892-16.212-150.742-40.105-163.619-43.075c-5.243,12.188-46.928,111.021-50.33,179.307l150.713,65.116
			c3.538,1.078,104.873,31.898,127.885,31.898c0.173,0,0.338-0.001,0.502-0.004c21.857-0.465,74.324-53.819,74.852-54.358
			c0.632-0.646,1.668-0.657,2.313-0.024c0.646,0.631,0.658,1.667,0.026,2.313c-2.192,2.239-53.938,54.847-77.12,55.34
			C1752.121,1913.21,1751.941,1913.212,1751.756,1913.212z"/>
	</g>
	<g>
		<path style="fill:#F07162;" d="M1259.773,1532.529c-0.397,0-0.796-0.144-1.111-0.435c-0.128-0.118-12.812-11.82-18.655-14.588
			c-4.717-2.233-28.825-7.555-40.914-10.056c-0.885-0.183-1.454-1.049-1.271-1.934c0.183-0.886,1.055-1.452,1.933-1.271
			c1.443,0.298,35.407,7.345,41.651,10.304c6.295,2.98,18.942,14.646,19.478,15.142c0.664,0.614,0.704,1.648,0.09,2.312
			C1260.651,1532.353,1260.213,1532.529,1259.773,1532.529z"/>
	</g>
	<g>
		<path style="fill:#F07162;" d="M1237.152,1555.15c-0.41,0-0.82-0.152-1.137-0.46c-0.099-0.096-9.957-9.6-17.118-13.647
			c-7.189-4.063-37.169-13.016-37.472-13.105c-0.866-0.258-1.358-1.169-1.1-2.035c0.259-0.867,1.169-1.355,2.036-1.101
			c1.247,0.372,30.639,9.149,38.147,13.393c7.528,4.255,17.367,13.743,17.783,14.145c0.649,0.628,0.667,1.664,0.038,2.313
			C1238.008,1554.983,1237.58,1555.15,1237.152,1555.15z"/>
	</g>
	<g>
		<path style="fill:#F07162;" d="M1221.963,1573.247c-0.431,0-0.863-0.17-1.185-0.507c-0.063-0.067-6.41-6.688-13.562-11.042
			c-7.147-4.352-33.242-11.381-33.504-11.451c-0.873-0.234-1.39-1.131-1.157-2.004c0.235-0.873,1.137-1.391,2.004-1.156
			c1.092,0.293,26.813,7.223,34.358,11.816c7.53,4.584,13.959,11.296,14.229,11.579c0.623,0.655,0.599,1.69-0.056,2.313
			C1222.775,1573.097,1222.369,1573.247,1221.963,1573.247z"/>
	</g>
	<g>
		<path d="M1001.758,1113.748c-42.149,0-75.974-8.264-98.434-16.016c-29.804-10.289-46.652-21.968-46.818-22.084
			c-0.74-0.519-0.919-1.538-0.401-2.278c0.518-0.74,1.538-0.92,2.278-0.402c0.656,0.458,66.748,45.722,172.449,36.194
			c0.902-0.084,1.695,0.583,1.777,1.482c0.081,0.9-0.583,1.695-1.483,1.776C1020.949,1113.338,1011.143,1113.748,1001.758,1113.748z
			"/>
	</g>
	<g>
		<path d="M744.341,1520.008c-0.618,0-1.21-0.352-1.486-0.949l-70.771-152.934c-0.379-0.82-0.022-1.792,0.797-2.172
			c0.818-0.38,1.792-0.022,2.172,0.798l70.771,152.934c0.379,0.819,0.022,1.792-0.798,2.172
			C744.805,1519.959,744.571,1520.008,744.341,1520.008z"/>
	</g>
	<g>
		<path d="M693.482,1410.109c-0.3,0-0.603-0.082-0.875-0.255l-22.5-14.274c-0.763-0.483-0.989-1.494-0.505-2.258
			c0.483-0.764,1.494-0.989,2.258-0.505l22.5,14.274c0.763,0.484,0.989,1.495,0.505,2.258
			C694.554,1409.841,694.024,1410.109,693.482,1410.109z"/>
	</g>
	<g>
		<path d="M1691.408,1251.106c-0.086,0-0.174-0.007-0.261-0.021c-0.893-0.144-1.5-0.982-1.357-1.874
			c0.061-0.375,5.876-37.946-5.728-75.624c-11.443-37.153-50.823-45.604-51.221-45.685c-0.885-0.181-1.456-1.045-1.274-1.931
			c0.181-0.886,1.047-1.456,1.931-1.275c0.416,0.085,41.684,8.941,53.691,47.928c11.836,38.43,5.893,76.723,5.832,77.105
			C1692.892,1250.534,1692.197,1251.106,1691.408,1251.106z"/>
	</g>
	<g>
		<g>
			<g>
				<path style="fill:#FE9F73;" d="M1662.649,1277.27c0,15.361,12.453,27.814,27.815,27.814c15.361,0,27.814-12.453,27.814-27.814
					c0-15.362-12.453-27.815-27.814-27.815C1675.103,1249.454,1662.649,1261.907,1662.649,1277.27z"/>
			</g>
		</g>
		<g>
			<g>
				<path style="fill:#F07162;" d="M1692.522,1294.433c5.839,0,9.738-4.385,11.021-8.769c1.519-5.186-0.225-10.227-4.439-12.843
					c-6.001-3.724-11.458-1.546-14.425,0.317c1.195-2.961,3.018-5.127,5.438-6.455c5.449-2.991,12.174-0.806,12.241-0.783
					c0.47,0.154,0.972-0.1,1.127-0.563c0.155-0.467-0.097-0.971-0.563-1.128c-0.305-0.103-7.536-2.452-13.661,0.912
					c-3.54,1.943-5.946,5.377-7.154,10.209l-0.774,3.098l2.268-2.251c0.274-0.274,6.833-6.643,14.564-1.842
					c4.272,2.651,4.646,7.49,3.669,10.828c-1.024,3.502-4.109,7.55-9.452,7.487c-0.482-0.013-0.896,0.384-0.903,0.878
					c-0.007,0.492,0.387,0.896,0.878,0.903C1692.412,1294.432,1692.468,1294.433,1692.522,1294.433z"/>
			</g>
		</g>
	</g>
	<g>
		<path d="M1972.764,1243.306c-0.393,0-0.784-0.14-1.098-0.423c-0.669-0.605-0.722-1.641-0.115-2.311
			c0.218-0.242,22.061-25.234,27.75-90.659c2.95-33.938-12.352-59.345-25.707-74.682c-14.549-16.706-30.021-25.456-30.176-25.542
			c-0.788-0.441-1.07-1.438-0.63-2.227c0.44-0.788,1.435-1.072,2.226-0.63c0.647,0.361,16.052,9.06,30.973,26.165
			c13.81,15.828,29.628,42.071,26.573,77.198c-5.798,66.675-27.655,91.544-28.583,92.57
			C1973.654,1243.124,1973.21,1243.306,1972.764,1243.306z"/>
	</g>
	<g>
		<path d="M1123.081,855.035c-0.097,0-0.196-0.009-0.295-0.027c-36.247-6.59-60.597-25.872-74.643-40.888
			c-15.221-16.273-21.78-30.786-22.051-31.396c-0.368-0.825,0.003-1.792,0.827-2.16c0.829-0.369,1.793,0.002,2.161,0.827
			c0.259,0.58,26.672,58.103,94.291,70.398c0.889,0.161,1.479,1.013,1.316,1.902
			C1124.544,854.481,1123.856,855.035,1123.081,855.035z"/>
	</g>
	<g>
		<path d="M876.834,917.785c-0.122,0-0.246-0.014-0.371-0.043c-0.88-0.204-1.428-1.083-1.224-1.963
			c22.167-95.679,84.276-147.477,84.9-147.99c0.7-0.572,1.729-0.47,2.303,0.228c0.572,0.699,0.471,1.73-0.228,2.303
			c-0.616,0.505-61.883,51.652-83.788,146.198C878.252,917.274,877.579,917.785,876.834,917.785z"/>
	</g>
</g>
<g>
	<g>
		<path style="fill:#7FC6A6;" d="M2318.036,1532.046c-18.466,22.277-23.76,48.356-11.825,58.248
			c11.934,9.893,36.577-0.147,55.043-22.425c18.465-22.277,23.76-48.355,11.826-58.248
			C2361.146,1499.729,2336.502,1509.769,2318.036,1532.046z"/>
	</g>
</g>
<g>
	<g>
		<path style="fill:#7FC6A6;" d="M2313.208,1643.711c-10.931,13.188-14.065,28.626-7,34.482c7.064,5.855,21.653-0.088,32.584-13.275
			c10.932-13.188,14.065-28.626,7.001-34.481C2338.729,1624.58,2324.14,1630.523,2313.208,1643.711z"/>
	</g>
</g>
</svg>
